<?xml version="1.0" encoding="UTF-8"?>
<svg version="1.1" xmlns="http://www.w3.org/2000/svg" width="128" height="128">
<path d="M0 0 C9.41049206 7.88688858 15.46431013 16.90408101 19.875 28.3125 C20.2153125 29.13621094 20.555625 29.95992187 20.90625 30.80859375 C26.07882375 45.7755317 23.91321875 64.0883026 17.5546875 78.25390625 C9.50461983 94.06811022 -2.61183801 104.92822919 -19.125 111.3125 C-19.94871094 111.6528125 -20.77242188 111.993125 -21.62109375 112.34375 C-36.5880317 117.51632375 -54.9008026 115.35071875 -69.06640625 108.9921875 C-84.88061022 100.94211983 -95.74072919 88.82566199 -102.125 72.3125 C-102.4653125 71.48878906 -102.805625 70.66507812 -103.15625 69.81640625 C-108.32882375 54.8494683 -106.16321875 36.5366974 -99.8046875 22.37109375 C-91.75461983 6.55688978 -79.63816199 -4.30322919 -63.125 -10.6875 C-62.30128906 -11.0278125 -61.47757813 -11.368125 -60.62890625 -11.71875 C-39.97348449 -18.85726376 -16.88231997 -12.70069918 0 0 Z " fill="#FBFBFC" transform="translate(105.125,13.6875)"/>
<path d="M0 0 C6.3849267 5.24914647 6.3849267 5.24914647 6.87890625 9.54296875 C6.63729868 13.95779798 5.95896016 15.93681438 3.0625 19.3984375 C2.258125 20.0378125 1.45375 20.6771875 0.625 21.3359375 C-1.025 19.3559375 -2.675 17.3759375 -4.375 15.3359375 C-3.88 20.2859375 -3.88 20.2859375 -3.375 25.3359375 C-4.86 25.8309375 -4.86 25.8309375 -6.375 26.3359375 C-6.59414062 25.80226562 -6.81328125 25.26859375 -7.0390625 24.71875 C-9.65217223 18.57900437 -12.74777727 12.93371874 -16.375 7.3359375 C-16.91125 6.46710937 -17.4475 5.59828125 -18 4.703125 C-20.93645314 0.275722 -20.93645314 0.275722 -25.36328125 -2.3984375 C-38.41760241 -3.25758844 -53.95853406 6.94860041 -64.23046875 14.41015625 C-66.83713391 16.75093206 -67.99648626 19.14358989 -69.375 22.3359375 C-65.87794871 21.05161411 -65.87794871 21.05161411 -62.375 19.3359375 C-61.88 17.8509375 -61.88 17.8509375 -61.375 16.3359375 C-60.88 18.8109375 -60.88 18.8109375 -60.375 21.3359375 C-59.715 21.3359375 -59.055 21.3359375 -58.375 21.3359375 C-54.375 28.0859375 -54.375 28.0859375 -54.375 30.3359375 C-55.035 30.3359375 -55.695 30.3359375 -56.375 30.3359375 C-55.88 30.8721875 -55.385 31.4084375 -54.875 31.9609375 C-52.94397557 35.01839285 -52.92977163 36.7741105 -53.375 40.3359375 C-54.875 42.7109375 -54.875 42.7109375 -56.375 44.3359375 C-59.75 44.0859375 -59.75 44.0859375 -63.375 43.3359375 C-65.92594982 40.34134423 -65.54748345 37.13057335 -65.375 33.3359375 C-67.85 33.8309375 -67.85 33.8309375 -70.375 34.3359375 C-70.375 33.6759375 -70.375 33.0159375 -70.375 32.3359375 C-69.10660474 31.82978452 -67.83516898 31.33124651 -66.5625 30.8359375 C-65.85480469 30.5575 -65.14710937 30.2790625 -64.41796875 29.9921875 C-62.375 29.3359375 -62.375 29.3359375 -59.375 29.3359375 C-59.375 28.6759375 -59.375 28.0159375 -59.375 27.3359375 C-60.365 27.0059375 -61.355 26.6759375 -62.375 26.3359375 C-61.385 25.3459375 -60.395 24.3559375 -59.375 23.3359375 C-60.83380109 23.47701497 -62.29203551 23.62396165 -63.75 23.7734375 C-64.56210938 23.85464844 -65.37421875 23.93585938 -66.2109375 24.01953125 C-68.41772805 24.22683864 -68.41772805 24.22683864 -70.375 25.3359375 C-72.24102738 30.93401964 -72.23398614 37.00856388 -69.875 42.4609375 C-69.38 43.4096875 -68.885 44.3584375 -68.375 45.3359375 C-68.045 45.3359375 -67.715 45.3359375 -67.375 45.3359375 C-67.106875 46.4290625 -66.83875 47.5221875 -66.5625 48.6484375 C-65.32447763 52.71426162 -65.32447763 52.71426162 -62.375 55.3359375 C-59.18953528 56.13321313 -59.18953528 56.13321313 -55.6875 56.5234375 C-54.50800781 56.68199219 -53.32851562 56.84054688 -52.11328125 57.00390625 C-51.20964844 57.11347656 -50.30601563 57.22304687 -49.375 57.3359375 C-49.375 57.6659375 -49.375 57.9959375 -49.375 58.3359375 C-51.355 58.3359375 -53.335 58.3359375 -55.375 58.3359375 C-55.375 59.9859375 -55.375 61.6359375 -55.375 63.3359375 C-52.9372037 63.38991085 -50.50060315 63.42959366 -48.0625 63.4609375 C-47.02706055 63.48607422 -47.02706055 63.48607422 -45.97070312 63.51171875 C-42.20364604 63.54811544 -40.59068296 63.47972614 -37.375 61.3359375 C-36.055 61.3359375 -34.735 61.3359375 -33.375 61.3359375 C-32.88 59.8509375 -32.88 59.8509375 -32.375 58.3359375 C-31.055 58.3359375 -29.735 58.3359375 -28.375 58.3359375 C-28.375 56.3559375 -28.375 54.3759375 -28.375 52.3359375 C-29.695 52.6659375 -31.015 52.9959375 -32.375 53.3359375 C-27.375 48.3359375 -27.375 48.3359375 -25.5 46.7734375 C-24.943125 46.061875 -24.943125 46.061875 -24.375 45.3359375 C-24.51550781 44.79582031 -24.65601562 44.25570312 -24.80078125 43.69921875 C-25.58664827 40.46486808 -25.46827122 37.40922918 -25.4375 34.0859375 C-25.42847656 32.82265625 -25.41945313 31.559375 -25.41015625 30.2578125 C-25.39855469 29.29359375 -25.38695313 28.329375 -25.375 27.3359375 C-26.695 27.3359375 -28.015 27.3359375 -29.375 27.3359375 C-28.88 27.7071875 -28.385 28.0784375 -27.875 28.4609375 C-26.375 30.3359375 -26.375 30.3359375 -26 33.3359375 C-26.375 36.3359375 -26.375 36.3359375 -27.5625 38.2109375 C-30.08242641 39.77502976 -31.46783294 39.91737091 -34.375 39.3359375 C-36.25 37.2734375 -36.25 37.2734375 -37.375 34.3359375 C-37.0625 30.5234375 -37.0625 30.5234375 -36.375 27.3359375 C-37.035 27.3359375 -37.695 27.3359375 -38.375 27.3359375 C-38.375 26.6759375 -38.375 26.0159375 -38.375 25.3359375 C-35.075 24.6759375 -31.775 24.0159375 -28.375 23.3359375 C-31.00448691 19.45641206 -31.00448691 19.45641206 -35.125 17.5234375 C-35.8675 17.4615625 -36.61 17.3996875 -37.375 17.3359375 C-37.375 19.6459375 -37.375 21.9559375 -37.375 24.3359375 C-37.705 24.3359375 -38.035 24.3359375 -38.375 24.3359375 C-38.50777344 23.59988281 -38.64054687 22.86382812 -38.77734375 22.10546875 C-38.95394531 21.12964844 -39.13054687 20.15382813 -39.3125 19.1484375 C-39.57353516 17.70404297 -39.57353516 17.70404297 -39.83984375 16.23046875 C-40.3273735 13.59353778 -40.84171105 10.963947 -41.375 8.3359375 C-40.385 8.3359375 -39.395 8.3359375 -38.375 8.3359375 C-38.2925 8.9546875 -38.21 9.5734375 -38.125 10.2109375 C-37.56916524 12.49682544 -37.56916524 12.49682544 -35.4375 13.5234375 C-34.756875 13.7915625 -34.07625 14.0596875 -33.375 14.3359375 C-32.715 14.6659375 -32.055 14.9959375 -31.375 15.3359375 C-31.045 14.6759375 -30.715 14.0159375 -30.375 13.3359375 C-23.49082775 20.46597305 -22.03375284 28.99802794 -22.125 38.5234375 C-22.17646532 41.13064877 -22.26502821 43.73021714 -22.375 46.3359375 C-20.395 45.3459375 -18.415 44.3559375 -16.375 43.3359375 C-15.385 47.9559375 -14.395 52.5759375 -13.375 57.3359375 C-14.365 57.9959375 -15.355 58.6559375 -16.375 59.3359375 C-16.87 60.8209375 -16.87 60.8209375 -17.375 62.3359375 C-31.99668783 73.77084721 -49.5477024 75.59697076 -67.375 74.3359375 C-74.28773852 73.29421202 -80.48964672 71.10472336 -86.375 67.3359375 C-85.89731 64.18318353 -85.12470149 61.77526884 -83.8125 58.8359375 C-82.48408922 55.60154603 -82.0641749 53.75501364 -82.375 50.3359375 C-81.715 50.3359375 -81.055 50.3359375 -80.375 50.3359375 C-80.375 50.9959375 -80.375 51.6559375 -80.375 52.3359375 C-76.75302806 53.82733771 -73.09933382 55.1233637 -69.375 56.3359375 C-69.890625 55.3871875 -70.40625 54.4384375 -70.9375 53.4609375 C-71.411875 52.4296875 -71.88625 51.3984375 -72.375 50.3359375 C-71.88 49.3459375 -71.88 49.3459375 -71.375 48.3359375 C-70.385 48.8309375 -70.385 48.8309375 -69.375 49.3359375 C-69.66375 48.82289062 -69.9525 48.30984375 -70.25 47.78125 C-74.41645475 39.18793707 -73.74007761 30.64541645 -73.375 21.3359375 C-73.88361572 21.56780762 -74.39223145 21.79967773 -74.91625977 22.03857422 C-77.25442293 23.1010619 -79.59590596 24.15603387 -81.9375 25.2109375 C-82.73736328 25.57574219 -83.53722656 25.94054687 -84.36132812 26.31640625 C-97.49687029 32.21399661 -97.49687029 32.21399661 -104.375 31.3359375 C-108.0328218 29.29599842 -110.04446174 27.83174488 -112.375 24.3359375 C-112.71784343 20.52180432 -112.48549057 16.75231169 -110.0703125 13.671875 C-105.42046869 9.71603773 -102.11527098 9.29485733 -96.25 9.6484375 C-90.25755511 9.69458394 -87.56149379 8.64446554 -82.921875 5.0546875 C-62.06934237 -9.01757379 -21.30541309 -15.15255672 0 0 Z " fill="#4E4455" transform="translate(120.375,53.6640625)"/>
<path d="M0 0 C0.99 0 1.98 0 3 0 C3.0825 0.61875 3.165 1.2375 3.25 1.875 C3.80583476 4.16088794 3.80583476 4.16088794 5.9375 5.1875 C6.618125 5.455625 7.29875 5.72375 8 6 C8.66 6.33 9.32 6.66 10 7 C10.33 6.34 10.66 5.68 11 5 C17.88417225 12.13003555 19.34124716 20.66209044 19.25 30.1875 C19.19853468 32.79471127 19.10997179 35.39427964 19 38 C20.98 37.01 22.96 36.02 25 35 C25.99 39.62 26.98 44.24 28 49 C27.01 49.66 26.02 50.32 25 51 C24.67 51.99 24.34 52.98 24 54 C9.37831217 65.43490971 -8.1727024 67.26103326 -26 66 C-32.91273852 64.95827452 -39.11464672 62.76878586 -45 59 C-44.52231 55.84724603 -43.74970149 53.43933134 -42.4375 50.5 C-41.10908922 47.26560853 -40.6891749 45.41907614 -41 42 C-40.34 42 -39.68 42 -39 42 C-39 42.66 -39 43.32 -39 44 C-35.37802806 45.49140021 -31.72433382 46.7874262 -28 48 C-28.515625 47.05125 -29.03125 46.1025 -29.5625 45.125 C-30.036875 44.09375 -30.51125 43.0625 -31 42 C-30.67 41.34 -30.34 40.68 -30 40 C-29.34 40.33 -28.68 40.66 -28 41 C-28.28875 40.48695312 -28.5775 39.97390625 -28.875 39.4453125 C-33.04145475 30.85199957 -32.36507761 22.30947895 -32 13 C-32.66 12.67 -33.32 12.34 -34 12 C-31.36 10.68 -28.72 9.36 -26 8 C-26.66 9.98 -27.32 11.96 -28 14 C-24.50294871 12.71567661 -24.50294871 12.71567661 -21 11 C-20.67 10.01 -20.34 9.02 -20 8 C-19.67 9.65 -19.34 11.3 -19 13 C-18.34 13 -17.68 13 -17 13 C-13 19.75 -13 19.75 -13 22 C-13.66 22 -14.32 22 -15 22 C-14.505 22.53625 -14.01 23.0725 -13.5 23.625 C-11.56897557 26.68245535 -11.55477163 28.438173 -12 32 C-13.5 34.375 -13.5 34.375 -15 36 C-18.375 35.75 -18.375 35.75 -22 35 C-24.55094982 32.00540673 -24.17248345 28.79463585 -24 25 C-25.65 25.33 -27.3 25.66 -29 26 C-29 25.34 -29 24.68 -29 24 C-27.73160474 23.49384702 -26.46016898 22.99530901 -25.1875 22.5 C-24.47980469 22.2215625 -23.77210937 21.943125 -23.04296875 21.65625 C-21 21 -21 21 -18 21 C-18 20.34 -18 19.68 -18 19 C-18.99 18.67 -19.98 18.34 -21 18 C-20.01 17.01 -19.02 16.02 -18 15 C-19.45880109 15.14107747 -20.91703551 15.28802415 -22.375 15.4375 C-23.18710937 15.51871094 -23.99921875 15.59992188 -24.8359375 15.68359375 C-27.04272805 15.89090114 -27.04272805 15.89090114 -29 17 C-30.86602738 22.59808214 -30.85898614 28.67262638 -28.5 34.125 C-28.005 35.07375 -27.51 36.0225 -27 37 C-26.67 37 -26.34 37 -26 37 C-25.731875 38.093125 -25.46375 39.18625 -25.1875 40.3125 C-23.94947763 44.37832412 -23.94947763 44.37832412 -21 47 C-17.81453528 47.79727563 -17.81453528 47.79727563 -14.3125 48.1875 C-13.13300781 48.34605469 -11.95351562 48.50460938 -10.73828125 48.66796875 C-9.83464844 48.77753906 -8.93101563 48.88710937 -8 49 C-8 49.33 -8 49.66 -8 50 C-9.98 50 -11.96 50 -14 50 C-14 51.65 -14 53.3 -14 55 C-11.5622037 55.05397335 -9.12560315 55.09365616 -6.6875 55.125 C-5.99720703 55.14175781 -5.30691406 55.15851563 -4.59570312 55.17578125 C-0.82864604 55.21217794 0.78431704 55.14378864 4 53 C5.32 53 6.64 53 8 53 C8.33 52.01 8.66 51.02 9 50 C10.32 50 11.64 50 13 50 C13 48.02 13 46.04 13 44 C11.02 44.495 11.02 44.495 9 45 C14 40 14 40 15.875 38.4375 C16.24625 37.963125 16.6175 37.48875 17 37 C16.85949219 36.45988281 16.71898437 35.91976562 16.57421875 35.36328125 C15.78835173 32.12893058 15.90672878 29.07329168 15.9375 25.75 C15.94652344 24.48671875 15.95554688 23.2234375 15.96484375 21.921875 C15.97644531 20.95765625 15.98804688 19.9934375 16 19 C14.68 19 13.36 19 12 19 C12.495 19.37125 12.99 19.7425 13.5 20.125 C15 22 15 22 15.375 25 C15 28 15 28 13.8125 29.875 C11.29257359 31.43909226 9.90716706 31.58143341 7 31 C5.125 28.9375 5.125 28.9375 4 26 C4.3125 22.1875 4.3125 22.1875 5 19 C4.34 19 3.68 19 3 19 C3 18.34 3 17.68 3 17 C6.3 16.34 9.6 15.68 13 15 C10.37051309 11.12047456 10.37051309 11.12047456 6.25 9.1875 C5.5075 9.125625 4.765 9.06375 4 9 C4 11.31 4 13.62 4 16 C3.67 16 3.34 16 3 16 C2.80083984 14.89591797 2.80083984 14.89591797 2.59765625 13.76953125 C2.42105469 12.79371094 2.24445313 11.81789063 2.0625 10.8125 C1.88847656 9.84957031 1.71445313 8.88664062 1.53515625 7.89453125 C1.0476265 5.25760028 0.53328895 2.6280095 0 0 Z " fill="#7E7A8F" transform="translate(79,62)"/>
<path d="M0 0 C0.99 0 1.98 0 3 0 C3.99 1.98 4.98 3.96 6 6 C6.721875 5.87625 7.44375 5.7525 8.1875 5.625 C11.42634043 6.05684539 11.7996128 6.52778646 13.8125 8.9375 C16 12 16 12 16 13 C12.37 13.33 8.74 13.66 5 14 C5 14.66 5 15.32 5 16 C5.66 16 6.32 16 7 16 C6.67 18.31 6.34 20.62 6 23 C6.99 23.33 7.98 23.66 9 24 C8.34 24 7.68 24 7 24 C7.66 24.99 8.32 25.98 9 27 C11.5 27.41666667 11.5 27.41666667 14 27 C16.28987808 25.12782652 16.28987808 25.12782652 16.3125 22.125 C15.9736202 18.73620199 15.27183419 17.46115371 13 15 C14.66611905 14.957279 16.33382885 14.95936168 18 15 C19 16 19 16 19.0625 19.52734375 C19.0383078 21.74697849 18.99950269 23.9661202 18.9609375 26.18554688 C18.80992935 30.22159235 18.80992935 30.22159235 20 34 C17.66666667 36.33333333 15.33333333 38.66666667 13 41 C13.66 41 14.32 41 15 41 C15.495 43.97 15.495 43.97 16 47 C15.195625 47.12375 14.39125 47.2475 13.5625 47.375 C12.716875 47.58125 11.87125 47.7875 11 48 C10.505 48.99 10.505 48.99 10 50 C3.62988545 53.60049953 -3.18822152 54.06391082 -10.33203125 52.484375 C-11.15767578 52.24460937 -11.15767578 52.24460937 -12 52 C-12 50.35 -12 48.7 -12 47 C-12.68707031 46.88785156 -13.37414063 46.77570313 -14.08203125 46.66015625 C-16.97018897 46.02798439 -19.37187061 45.36713677 -22 44 C-23.37277071 41.67946499 -23.9472838 39.68831378 -24.5 37.05859375 C-24.86160082 34.79157487 -24.86160082 34.79157487 -27 33 C-29.318108 27.84864889 -29.62438981 22.56441504 -29 17 C-27.51304348 13.25652174 -27.51304348 13.25652174 -25 12 C-23.45976004 11.93049459 -21.91665012 11.91547643 -20.375 11.9375 C-19.14910156 11.95103516 -19.14910156 11.95103516 -17.8984375 11.96484375 C-16.95871094 11.98224609 -16.95871094 11.98224609 -16 12 C-16 14 -16 16 -16 18 C-21.445 19.485 -21.445 19.485 -27 21 C-27 21.66 -27 22.32 -27 23 C-25.35 22.67 -23.7 22.34 -22 22 C-22 23.98 -22 25.96 -22 28 C-21.01 28.33 -20.02 28.66 -19 29 C-19.66 29 -20.32 29 -21 29 C-19.19873295 31.27528469 -18.3633843 31.94682181 -15.4375 32.375 C-14.633125 32.25125 -13.82875 32.1275 -13 32 C-10.67463937 28.51195905 -10.66542102 27.09859246 -11 23 C-11.89831016 20.69769234 -11.89831016 20.69769234 -13 19 C-12.34 19 -11.68 19 -11 19 C-11.66 18.071875 -12.32 17.14375 -13 16.1875 C-15 13 -15 13 -15 10 C-8.25 6 -8.25 6 -6 6 C-5.95101562 6.92683594 -5.90203125 7.85367188 -5.8515625 8.80859375 C-5.77679688 10.00613281 -5.70203125 11.20367187 -5.625 12.4375 C-5.55539063 13.63246094 -5.48578125 14.82742187 -5.4140625 16.05859375 C-5.27742188 17.02925781 -5.14078125 17.99992187 -5 19 C-4.34 19.33 -3.68 19.66 -3 20 C-1.27419308 15.5399735 -0.80126601 11.95568964 -0.9375 7.1875 C-0.99108634 5.12559099 -1.02065452 3.0625018 -1 1 C-0.67 0.67 -0.34 0.34 0 0 Z " fill="#FBE8E1" transform="translate(77,65)"/>
<path d="M0 0 C6.96321864 2.99541348 13.46484591 6.22144649 18.43359375 12.046875 C17.8204834 12.2739917 17.20737305 12.5011084 16.57568359 12.73510742 C10.37780475 15.11066499 4.74861764 17.95695847 -0.94140625 21.359375 C-1.75996094 21.84067871 -2.57851563 22.32198242 -3.421875 22.81787109 C-5.80712898 24.22132073 -8.18727566 25.63307691 -10.56640625 27.046875 C-12.89752647 28.42571025 -15.23129751 29.79978556 -17.56640625 31.171875 C-18.47390625 31.71070313 -19.38140625 32.24953125 -20.31640625 32.8046875 C-22.56640625 34.046875 -22.56640625 34.046875 -25.56640625 35.046875 C-25.56640625 31.746875 -25.56640625 28.446875 -25.56640625 25.046875 C-33.75440935 27.46694582 -33.75440935 27.46694582 -39.56640625 33.046875 C-40.22640625 33.046875 -40.88640625 33.046875 -41.56640625 33.046875 C-42.0353203 27.50714624 -41.59866534 23.48244359 -38.296875 18.890625 C-35.54044406 15.78464312 -32.56264362 12.91981042 -29.56640625 10.046875 C-28.33630714 8.73524886 -27.10696411 7.42291253 -25.87890625 6.109375 C-17.80251735 -1.73625993 -10.71443757 -3.93667377 0 0 Z " fill="#504757" transform="translate(61.56640625,15.953125)"/>
<path d="M0 0 C2.29890466 1.70289234 2.92241293 2.71786519 3.6875 5.5 C5.50781293 8.96726272 7.71110664 9.35713577 11.3203125 10.51953125 C11.87460938 10.67808594 12.42890625 10.83664063 13 11 C13 13.31 13 15.62 13 18 C11.76507813 18.02578125 10.53015625 18.0515625 9.2578125 18.078125 C-11.52616273 18.69835703 -31.59545431 23.00896091 -50 33 C-51.33103452 33.6712446 -52.66366376 34.33937328 -54 35 C-52.81651376 26.71559633 -52.81651376 26.71559633 -51 23 C-48 21.5 -48 21.5 -46.09765625 20.82421875 C-43.69337259 19.87951884 -41.6383967 18.66494558 -39.4375 17.3125 C-33.04066107 13.39467919 -26.53132521 9.68715666 -20 6 C-18.41638672 5.10474609 -18.41638672 5.10474609 -16.80078125 4.19140625 C-15.83527344 3.65386719 -14.86976562 3.11632812 -13.875 2.5625 C-13.02679688 2.08941406 -12.17859375 1.61632812 -11.3046875 1.12890625 C-7.21577595 -0.87396737 -4.40674162 -1.3559205 0 0 Z " fill="#E5AFD7" transform="translate(85,28)"/>
<path d="M0 0 C0.02578125 1.18335937 0.0515625 2.36671875 0.078125 3.5859375 C0.43617853 15.27678051 0.43617853 15.27678051 4.2578125 26.25 C4.62519531 27.11625 4.62519531 27.11625 5 28 C4.67 28.66 4.34 29.32 4 30 C3.34 29.67 2.68 29.34 2 29 C2.66 29.99 3.32 30.98 4 32 C4 32.99 4 33.98 4 35 C-0.68691225 34.4550102 -4.57102408 33.42897592 -8 30 C-8.0825 30.969375 -8.165 31.93875 -8.25 32.9375 C-8.8999125 37.67119101 -10.92305323 41.73984407 -13 46 C-16.61939504 44.27256146 -19.87567603 42.52349243 -23 40 C-22.68289062 38.9275 -22.36578125 37.855 -22.0390625 36.75 C-20.65491245 31.21339981 -20.54567407 25.68202417 -20.375 20 C-20.33632813 18.93910156 -20.29765625 17.87820312 -20.2578125 16.78515625 C-20.16430306 14.19026933 -20.07855098 11.59537551 -20 9 C-20.66 8.67 -21.32 8.34 -22 8 C-20.69675781 7.51080078 -20.69675781 7.51080078 -19.3671875 7.01171875 C-18.21476562 6.57472656 -17.06234375 6.13773437 -15.875 5.6875 C-14.73804688 5.25824219 -13.60109375 4.82898438 -12.4296875 4.38671875 C-8.98489852 3.05427498 -8.98489852 3.05427498 -5.7578125 1.33203125 C-3 0 -3 0 0 0 Z " fill="#E9EAEF" transform="translate(47,75)"/>
<path d="M0 0 C0.99 0 1.98 0 3 0 C3.12375 0.928125 3.12375 0.928125 3.25 1.875 C3.80583476 4.16088794 3.80583476 4.16088794 5.9375 5.1875 C6.618125 5.455625 7.29875 5.72375 8 6 C8.66 6.33 9.32 6.66 10 7 C10.33 6.34 10.66 5.68 11 5 C17.88417225 12.13003555 19.34124716 20.66209044 19.25 30.1875 C19.19853468 32.79471127 19.10997179 35.39427964 19 38 C20.98 37.01 22.96 36.02 25 35 C25.99 39.62 26.98 44.24 28 49 C27.01 49.66 26.02 50.32 25 51 C24.67 51.99 24.34 52.98 24 54 C15.28667946 60.8142635 3.95607984 65.08772573 -6.9765625 66.25 C-9 66 -9 66 -10.7578125 64.6953125 C-12.61558491 62.1598621 -12.26504844 60.04805706 -12 57 C-9.7977242 54.7977242 -4.86324363 55.54767765 -1.8828125 55.37890625 C1.19258834 55.19049848 1.19258834 55.19049848 4 53 C5.32 53 6.64 53 8 53 C8.33 52.01 8.66 51.02 9 50 C10.32 50 11.64 50 13 50 C13 48.02 13 46.04 13 44 C11.02 44.495 11.02 44.495 9 45 C14 40 14 40 15.875 38.4375 C16.24625 37.963125 16.6175 37.48875 17 37 C16.85949219 36.45988281 16.71898438 35.91976562 16.57421875 35.36328125 C15.78835173 32.12893058 15.90672878 29.07329168 15.9375 25.75 C15.94652344 24.48671875 15.95554687 23.2234375 15.96484375 21.921875 C15.97644531 20.95765625 15.98804687 19.9934375 16 19 C14.68 19 13.36 19 12 19 C12.495 19.37125 12.99 19.7425 13.5 20.125 C15 22 15 22 15.375 25 C15 28 15 28 13.8125 29.875 C11.29257359 31.43909226 9.90716706 31.58143341 7 31 C5.125 28.9375 5.125 28.9375 4 26 C4.3125 22.1875 4.3125 22.1875 5 19 C4.34 19 3.68 19 3 19 C3 18.34 3 17.68 3 17 C6.3 16.34 9.6 15.68 13 15 C10.37051309 11.12047456 10.37051309 11.12047456 6.25 9.1875 C5.5075 9.125625 4.765 9.06375 4 9 C4 11.31 4 13.62 4 16 C3.67 16 3.34 16 3 16 C2.86722656 15.26394531 2.73445313 14.52789062 2.59765625 13.76953125 C2.42105469 12.79371094 2.24445313 11.81789063 2.0625 10.8125 C1.88847656 9.84957031 1.71445313 8.88664062 1.53515625 7.89453125 C1.0476265 5.25760028 0.53328895 2.6280095 0 0 Z " fill="#ABA9B0" transform="translate(79,62)"/>
<path d="M0 0 C2.5625 1.875 2.5625 1.875 4 4 C4 4.66 4 5.32 4 6 C1.64716625 6.65104151 -0.70708449 7.29592122 -3.0625 7.9375 C-3.71927734 8.11990234 -4.37605469 8.30230469 -5.05273438 8.49023438 C-9.3587782 9.65689649 -13.57159654 10.45292805 -18 11 C-17.67 11.99 -17.34 12.98 -17 14 C-17.99 14.33 -18.98 14.66 -20 15 C-19.94779297 16.28583984 -19.94779297 16.28583984 -19.89453125 17.59765625 C-19.73781639 24.21699334 -19.746111 29.17011554 -23 35 C-24.485 34.505 -24.485 34.505 -26 34 C-26 29.38 -26 24.76 -26 20 C-27.0725 20.66 -28.145 21.32 -29.25 22 C-32.30980686 23.88295807 -33.1335864 24 -37 24 C-37.33 23.67 -37.66 23.34 -38 23 C-39.92139613 23.32743697 -39.92139613 23.32743697 -42.0625 23.9375 C-43.16271484 24.22947266 -43.16271484 24.22947266 -44.28515625 24.52734375 C-44.85105469 24.68332031 -45.41695312 24.83929688 -46 25 C-45.04995095 19.43542702 -42.37954032 17.10075139 -38.02734375 13.93359375 C-34.26983813 11.53363855 -30.42662484 9.35964226 -26.5 7.25 C-25.80060303 6.87319092 -25.10120605 6.49638184 -24.38061523 6.1081543 C-16.87676748 2.20308177 -8.62849273 -1.60489965 0 0 Z " fill="#BEC1D6" transform="translate(97,51)"/>
<path d="M0 0 C21.65828835 -0.7891684 21.65828835 -0.7891684 29.5625 5.5 C33.92510121 9.97446278 33.92510121 9.97446278 34.15234375 13.0859375 C33.73501042 17.53243441 33.39834555 19.52392849 30.4375 23.0625 C29.633125 23.701875 28.82875 24.34125 28 25 C26.35 23.02 24.7 21.04 23 19 C23.33 22.3 23.66 25.6 24 29 C23.01 29.33 22.02 29.66 21 30 C20.78085938 29.46632813 20.56171875 28.93265625 20.3359375 28.3828125 C13.19136382 11.53823385 13.19136382 11.53823385 0 0 Z " fill="#A63D79" transform="translate(93,50)"/>
<path d="M0 0 C4.63768531 3.6438956 6.07369925 8.63094897 8 14 C8.66 14 9.32 14 10 14 C13.34528448 20.69056895 11.30134684 31.64622944 9.19921875 38.578125 C7.1222344 42.77268623 3.78603587 45.36506292 0 48 C-0.66 47.34 -1.32 46.68 -2 46 C-1.01 45.34 -0.02 44.68 1 44 C0.01 40.04 -0.98 36.08 -2 32 C-2.99 32.66 -3.98 33.32 -5 34 C-4.04950153 30.03958973 -3.42822801 27.56961638 -0.94140625 24.26171875 C1.38012029 20.36136731 1.49710696 17.33114569 1.3125 12.9375 C1.29799805 11.89625977 1.29799805 11.89625977 1.28320312 10.83398438 C1.20209964 7.1208553 0.86604651 3.61204764 0 0 Z " fill="#8F6483" transform="translate(105,66)"/>
<path d="M0 0 C1 1 1 1 1.0625 4.5625 C1.041875 5.696875 1.02125 6.83125 1 8 C-0.23492187 8.02578125 -1.46984375 8.0515625 -2.7421875 8.078125 C-20.16283755 8.59798922 -35.63275482 12.18844193 -52 18 C-53.99862686 18.67077203 -55.99818762 19.33879531 -58 20 C-57.83300781 17.65844727 -57.83300781 17.65844727 -57 15 C-54.70605469 13.57788086 -54.70605469 13.57788086 -51.671875 12.46484375 C-50.56070313 12.04783203 -49.44953125 11.63082031 -48.3046875 11.20117188 C-47.13164063 10.78416016 -45.95859375 10.36714844 -44.75 9.9375 C-43.06003906 9.30618164 -43.06003906 9.30618164 -41.3359375 8.66210938 C-11.1324391 -2.48277419 -11.1324391 -2.48277419 0 0 Z " fill="#EBB4DD" transform="translate(97,38)"/>
<path d="M0 0 C0.99 0 1.98 0 3 0 C3.99 1.98 4.98 3.96 6 6 C6.721875 5.87625 7.44375 5.7525 8.1875 5.625 C11.42634043 6.05684539 11.7996128 6.52778646 13.8125 8.9375 C16 12 16 12 16 13 C12.37 13.33 8.74 13.66 5 14 C5 14.66 5 15.32 5 16 C5.66 16 6.32 16 7 16 C6.67 18.31 6.34 20.62 6 23 C5.34 22.67 4.68 22.34 4 22 C3.67 23.32 3.34 24.64 3 26 C2.01 26 1.02 26 0 26 C-0.33 26.99 -0.66 27.98 -1 29 C-1.99 29 -2.98 29 -4 29 C-4.391875 28.13375 -4.78375 27.2675 -5.1875 26.375 C-7.15211555 22.71675035 -9.28146585 20.12631428 -12 17 C-15 13.37931034 -15 13.37931034 -15 10 C-8.25 6 -8.25 6 -6 6 C-5.95101562 6.92683594 -5.90203125 7.85367188 -5.8515625 8.80859375 C-5.77679688 10.00613281 -5.70203125 11.20367187 -5.625 12.4375 C-5.55539063 13.63246094 -5.48578125 14.82742187 -5.4140625 16.05859375 C-5.27742188 17.02925781 -5.14078125 17.99992187 -5 19 C-4.34 19.33 -3.68 19.66 -3 20 C-1.27419308 15.5399735 -0.80126601 11.95568964 -0.9375 7.1875 C-0.99108634 5.12559099 -1.02065452 3.0625018 -1 1 C-0.67 0.67 -0.34 0.34 0 0 Z " fill="#E7E6EB" transform="translate(77,65)"/>
<path d="M0 0 C0 3.3 0 6.6 0 10 C-0.66 10 -1.32 10 -2 10 C-1.95875 10.763125 -1.9175 11.52625 -1.875 12.3125 C-2 15 -2 15 -4 18 C-4.38499891 19.65549531 -4.72793135 21.3222433 -5 23 C-6.9587043 22.85923685 -8.91696093 22.7122324 -10.875 22.5625 C-11.96554688 22.48128906 -13.05609375 22.40007813 -14.1796875 22.31640625 C-17 22 -17 22 -19 21 C-19.46192125 16.07284004 -17.8275283 12.49267375 -16 8 C-15.34 8 -14.68 8 -14 8 C-13.67 7.01 -13.34 6.02 -13 5 C-11.07421875 3.61328125 -11.07421875 3.61328125 -8.6875 2.3125 C-7.51767578 1.65701172 -7.51767578 1.65701172 -6.32421875 0.98828125 C-4 0 -4 0 0 0 Z " fill="#F9F8F6" transform="translate(36,41)"/>
<path d="M0 0 C0.26554687 1.01320313 0.53109375 2.02640625 0.8046875 3.0703125 C1.16135689 4.42190177 1.51813343 5.77346278 1.875 7.125 C2.04902344 7.79015625 2.22304688 8.4553125 2.40234375 9.140625 C3.4631133 13.14797664 4.64432311 17.07952899 6 21 C5.01 20.67 4.02 20.34 3 20 C3.66 20.99 4.32 21.98 5 23 C5 23.99 5 24.98 5 26 C0.64477147 25.49357808 -2.44239635 24.61588503 -6 22 C-6 21.34 -6 20.68 -6 20 C-6.99 19.67 -7.98 19.34 -9 19 C-11.91244923 15.19141255 -12.64233364 11.73907927 -13 7 C-11.53738259 4.07476518 -9.45303767 3.67646763 -6.5 2.375 C-5.4996875 1.92898437 -4.499375 1.48296875 -3.46875 1.0234375 C-1 0 -1 0 0 0 Z " fill="#EBEDF1" transform="translate(46,84)"/>
<path d="M0 0 C0 4.62 0 9.24 0 14 C-0.66 12.68 -1.32 11.36 -2 10 C-2.54269531 10.28875 -3.08539063 10.5775 -3.64453125 10.875 C-4.35996094 11.24625 -5.07539062 11.6175 -5.8125 12 C-6.52019531 12.37125 -7.22789063 12.7425 -7.95703125 13.125 C-10 14 -10 14 -13 14 C-13 16.97 -13 19.94 -13 23 C-15.35953094 20.64046906 -15.49141413 19.22104383 -16 16 C-17.32 16.33 -18.64 16.66 -20 17 C-20 14.36 -20 11.72 -20 9 C-20.66 8.67 -21.32 8.34 -22 8 C-20.69675781 7.51080078 -20.69675781 7.51080078 -19.3671875 7.01171875 C-18.21476562 6.57472656 -17.06234375 6.13773437 -15.875 5.6875 C-14.73804688 5.25824219 -13.60109375 4.82898438 -12.4296875 4.38671875 C-8.98489852 3.05427498 -8.98489852 3.05427498 -5.7578125 1.33203125 C-3 0 -3 0 0 0 Z " fill="#BDC1D4" transform="translate(47,75)"/>
<path d="M0 0 C2.95562064 0.20151959 5.07037079 0.96252665 7.75 2.1875 C6.28186646 5.98798754 5.51332341 7.81087341 1.7890625 9.6484375 C0.66242188 9.95007813 -0.46421875 10.25171875 -1.625 10.5625 C-2.74648437 10.87960938 -3.86796875 11.19671875 -5.0234375 11.5234375 C-12.00492474 12.96030533 -12.00492474 12.96030533 -15.0625 11.0625 C-16.75813053 8.38518863 -16.5194875 6.28660627 -16.25 3.1875 C-14.01357738 0.95107738 -8.96346616 1.66857795 -5.9375 1.46875 C-3.08685325 1.1704265 -2.72836438 0.2273637 0 0 Z " fill="#D6A546" transform="translate(83.25,115.8125)"/>
<path d="M0 0 C0.33 1.98 0.66 3.96 1 6 C0.195625 6.12375 -0.60875 6.2475 -1.4375 6.375 C-2.283125 6.58125 -3.12875 6.7875 -4 7 C-4.33 7.66 -4.66 8.32 -5 9 C-11.37011455 12.60049953 -18.18822152 13.06391082 -25.33203125 11.484375 C-26.15767578 11.24460937 -26.15767578 11.24460937 -27 11 C-27 9.35 -27 7.7 -27 6 C-25.94941406 5.81824219 -24.89882812 5.63648437 -23.81640625 5.44921875 C-16.36986745 4.12714333 -7.24396383 0 0 0 Z " fill="#AD9F95" transform="translate(92,106)"/>
<path d="M0 0 C1.32 0 2.64 0 4 0 C5.30561288 3.91683864 5.22374165 7.66682648 5.25 11.75 C5.2809375 12.92949219 5.2809375 12.92949219 5.3125 14.1328125 C5.34830406 19.52132374 4.44319308 23.1907673 2 28 C1.01 27.67 0.02 27.34 -1 27 C-3.77060028 18.68819917 -2.32400089 8.27925317 0 0 Z " fill="#FAFAFB" transform="translate(108,82)"/>
<path d="M0 0 C-0.99 0.495 -0.99 0.495 -2 1 C-1.505 1.53625 -1.01 2.0725 -0.5 2.625 C1.43102443 5.68245535 1.44522837 7.438173 1 11 C-0.5 13.375 -0.5 13.375 -2 15 C-5.375 14.75 -5.375 14.75 -9 14 C-11.55094982 11.00540673 -11.17248345 7.79463585 -11 4 C-12.65 4.33 -14.3 4.66 -16 5 C-16 4.34 -16 3.68 -16 3 C-10.28264895 0.54970669 -6.20970773 -0.33266291 0 0 Z " fill="#282731" transform="translate(66,83)"/>
<path d="M0 0 C0.99 0.33 1.98 0.66 3 1 C2.7834375 1.7734375 2.7834375 1.7734375 2.5625 2.5625 C1.84190099 5.68509571 1.42733561 8.82550692 1 12 C1.66 12 2.32 12 3 12 C3.66 9.36 4.32 6.72 5 4 C7.18975773 7.28463659 7.99806563 10.20696275 9 14 C4.76405345 17.82601624 0.21592698 19.86362904 -5 22 C-4.34 20.35 -3.68 18.7 -3 17 C-3.99 16.34 -4.98 15.68 -6 15 C-6.33 15.99 -6.66 16.98 -7 18 C-7 16.68 -7 15.36 -7 14 C-7.99 13.67 -8.98 13.34 -10 13 C-8.68 13 -7.36 13 -6 13 C-5.67 12.01 -5.34 11.02 -5 10 C-3.68 10 -2.36 10 -1 10 C-1 8.02 -1 6.04 -1 4 C-2.32 4.33 -3.64 4.66 -5 5 C-3.35 3.35 -1.7 1.7 0 0 Z " fill="#A3A4B2" transform="translate(93,102)"/>
<path d="M0 0 C3.64397687 2.42931791 4.50831386 3.89786311 6 8 C6 11.82813888 5.72509673 15.54980653 4 19 C0.45566346 17.58226538 -0.33806119 16.32387762 -2 13 C-3.32520503 12.31731862 -4.65812182 11.6492959 -6 11 C-6.33 10.01 -6.66 9.02 -7 8 C-4.95925695 4.42869967 -3.44246864 2.2949791 0 0 Z " fill="#B95D91" transform="translate(119,53)"/>
<path d="M0 0 C0.33 0.66 0.66 1.32 1 2 C0.0625 4.125 0.0625 4.125 -1 6 C2.49705129 4.71567661 2.49705129 4.71567661 6 3 C6.33 2.01 6.66 1.02 7 0 C7.33 1.65 7.66 3.3 8 5 C8.66 5 9.32 5 10 5 C11.32 7.64 12.64 10.28 14 13 C12.35 13 10.7 13 9 13 C9 12.34 9 11.68 9 11 C8.01 10.67 7.02 10.34 6 10 C6.99 9.01 7.98 8.02 9 7 C7.54119891 7.14107747 6.08296449 7.28802415 4.625 7.4375 C3.81289063 7.51871094 3.00078125 7.59992188 2.1640625 7.68359375 C-0.04272805 7.89090114 -0.04272805 7.89090114 -2 9 C-3.86602738 14.59808214 -3.85898614 20.67262638 -1.5 26.125 C-1.005 27.07375 -0.51 28.0225 0 29 C0.33 29 0.66 29 1 29 C1.33 31.97 1.66 34.94 2 38 C1.34 38 0.68 38 0 38 C0.33 38.99 0.66 39.98 1 41 C0.01 40.67 -0.98 40.34 -2 40 C-2.625 38.1875 -2.625 38.1875 -3 36 C-3.185625 35.2575 -3.37125 34.515 -3.5625 33.75 C-3.706875 33.1725 -3.85125 32.595 -4 32 C-3.01 32.33 -2.02 32.66 -1 33 C-1.28875 32.48695312 -1.5775 31.97390625 -1.875 31.4453125 C-6.04145475 22.85199957 -5.36507761 14.30947895 -5 5 C-5.66 4.67 -6.32 4.34 -7 4 C-4.69 2.68 -2.38 1.36 0 0 Z " fill="#928E98" transform="translate(52,70)"/>
<path d="M0 0 C0 0.66 0 1.32 0 2 C-0.99 2.33 -1.98 2.66 -3 3 C-2.505 3.37125 -2.01 3.7425 -1.5 4.125 C0 6 0 6 0.375 9 C0 12 0 12 -1.1875 13.875 C-3.70742641 15.43909226 -5.09283294 15.58143341 -8 15 C-9.875 12.9375 -9.875 12.9375 -11 10 C-10.6875 6.1875 -10.6875 6.1875 -10 3 C-10.66 3 -11.32 3 -12 3 C-12 2.34 -12 1.68 -12 1 C-7.93631321 0.22596442 -4.13574827 -0.0984702 0 0 Z " fill="#1C1E28" transform="translate(94,78)"/>
<path d="M0 0 C1.69433918 3.0469629 2.49467112 5.82821466 3.125 9.25 C3.29257813 10.14203125 3.46015625 11.0340625 3.6328125 11.953125 C3.75398438 12.62859375 3.87515625 13.3040625 4 14 C3.01 14.66 2.02 15.32 1 16 C0.67 16.99 0.34 17.98 0 19 C-1.74271938 16.702779 -3.39911152 14.40133271 -5 12 C-5.66 13.65 -6.32 15.3 -7 17 C-7.66 17 -8.32 17 -9 17 C-9.56191279 13.14688373 -9.75343265 11.10147503 -7.51171875 7.82421875 C-5.73380547 5.81072276 -3.91419159 3.88387634 -2 2 C-1.34 1.34 -0.68 0.68 0 0 Z " fill="#EAEBF1" transform="translate(103,97)"/>
<path d="M0 0 C1.23736741 0.69390828 2.46447886 1.40610772 3.6875 2.125 C4.71423828 2.71667969 4.71423828 2.71667969 5.76171875 3.3203125 C8 5 8 5 13 11 C7.39 11 1.78 11 -4 11 C-3.15332803 5.9199682 -2.69856257 3.98917945 0 0 Z " fill="#4E4552" transform="translate(57,117)"/>
<path d="M0 0 C0.04898438 0.92683594 0.09796875 1.85367188 0.1484375 2.80859375 C0.22320312 4.00613281 0.29796875 5.20367187 0.375 6.4375 C0.44460937 7.63246094 0.51421875 8.82742187 0.5859375 10.05859375 C0.72257812 11.02925781 0.85921875 11.99992187 1 13 C1.66 13.33 2.32 13.66 3 14 C3.66 13.01 4.32 12.02 5 11 C5.66 11 6.32 11 7 11 C6.01 13.97 5.02 16.94 4 20 C3.34 18.68 2.68 17.36 2 16 C0.67592331 15.31513275 -0.65909241 14.65129797 -2 14 C-3.70680947 12.37446717 -5.37660195 10.70884005 -7 9 C-7.66 8.34 -8.32 7.68 -9 7 C-9 6.01 -9 5.02 -9 4 C-2.25 0 -2.25 0 0 0 Z " fill="#EBECF1" transform="translate(71,71)"/>
<path d="M0 0 C2.00461299 0.65266469 4.00379834 1.32204472 6 2 C6.9075 2.185625 7.815 2.37125 8.75 2.5625 C11.59864816 4.38246965 11.59076283 5.39989475 12.3125 8.625 C12.56262996 10.07988435 12.79839367 11.53760185 13 13 C12.401875 12.690625 11.80375 12.38125 11.1875 12.0625 C8.91043228 10.89790296 8.91043228 10.89790296 6 10 C6 9.34 6 8.68 6 8 C5.01 8 4.02 8 3 8 C3 9.32 3 10.64 3 12 C2.01 12 1.02 12 0 12 C-0.33 11.01 -0.66 10.02 -1 9 C-1.66 8.67 -2.32 8.34 -3 8 C-3 7.01 -3 6.02 -3 5 C-2.34 5 -1.68 5 -1 5 C-0.67 3.35 -0.34 1.7 0 0 Z " fill="#C1ACC3" transform="translate(41,108)"/>
<path d="M0 0 C-1.430324 4.29097201 -4.59897631 5.37890013 -8.375 7.4375 C-9.09945312 7.83638428 -9.82390625 8.23526855 -10.5703125 8.64624023 C-18.87482934 13.13071614 -26.39932154 16.72457951 -36 16 C-36.33 15.01 -36.66 14.02 -37 13 C-35.90945312 12.87044922 -35.90945312 12.87044922 -34.796875 12.73828125 C-23.42216185 11.148738 -14.07278892 6.82883652 -4.1796875 1.13671875 C-2 0 -2 0 0 0 Z " fill="#2F2838" transform="translate(53,68)"/>
<path d="M0 0 C0.66 0 1.32 0 2 0 C2 0.66 2 1.32 2 2 C2.99 2.33 3.98 2.66 5 3 C4.34 3.66 3.68 4.32 3 5 C2.3574765 7.06874034 2.3574765 7.06874034 2 9 C1.34 9 0.68 9 0 9 C0 9.99 0 10.98 0 12 C0.99 12.33 1.98 12.66 3 13 C3 13.99 3 14.98 3 16 C4.32 16 5.64 16 7 16 C7 16.99 7 17.98 7 19 C6.34 19 5.68 19 5 19 C4.67 19.66 4.34 20.32 4 21 C1.36 19.68 -1.28 18.36 -4 17 C-3.52231 13.84724603 -2.74970149 11.43933134 -1.4375 8.5 C-0.10908922 5.26560853 0.3108251 3.41907614 0 0 Z " fill="#8987A5" transform="translate(38,104)"/>
<path d="M0 0 C1.32 0.33 2.64 0.66 4 1 C4 1.66 4 2.32 4 3 C4.598125 3.12375 5.19625 3.2475 5.8125 3.375 C8 4 8 4 11 6 C10.67 7.98 10.34 9.96 10 12 C2.25 11.125 2.25 11.125 0 10 C0 9.34 0 8.68 0 8 C0.66 8 1.32 8 2 8 C1.67 7.4225 1.34 6.845 1 6.25 C0 4 0 4 0 0 Z " fill="#797E9D" transform="translate(43,115)"/>
<path d="M0 0 C1.8125 2.0625 1.8125 2.0625 3 4 C2.24976562 4.12117188 1.49953125 4.24234375 0.7265625 4.3671875 C-5.87868532 5.44865125 -12.44699532 6.63720699 -19 8 C-16.53465551 5.2533746 -13.82981241 3.55874344 -10.625 1.75 C-9.68914062 1.20859375 -8.75328125 0.6671875 -7.7890625 0.109375 C-4.56607846 -1.17259624 -3.21105021 -1.26723721 0 0 Z " fill="#4C3B50" transform="translate(88,34)"/>
<path d="M0 0 C2.5625 0.1875 2.5625 0.1875 4.5625 2.1875 C4.75 5.75 4.75 5.75 4.5625 9.1875 C3.5625 10.1875 3.5625 10.1875 1.71484375 10.28515625 C-0.3359375 10.25260417 -2.38671875 10.22005208 -4.4375 10.1875 C-4.29700482 8.70781676 -4.14995174 7.22875484 -4 5.75 C-3.91878906 4.92628906 -3.83757813 4.10257812 -3.75390625 3.25390625 C-3.29652908 0.2668381 -3.04974038 0.23459541 0 0 Z " fill="#213C6F" transform="translate(60.4375,85.8125)"/>
<path d="M0 0 C1.66611905 -0.042721 3.33382885 -0.04063832 5 0 C6 1 6 1 6.0625 4.52734375 C6.0383078 6.74697849 5.99950269 8.9661202 5.9609375 11.18554688 C5.80992935 15.22159235 5.80992935 15.22159235 7 19 C4.69 18.67 2.38 18.34 0 18 C0 16.68 0 15.36 0 14 C-0.66 13.67 -1.32 13.34 -2 13 C-1.175 12.62875 -0.35 12.2575 0.5 11.875 C3.30990442 10.21547359 3.30990442 10.21547359 3.5 7.0625 C2.97013347 3.81706751 2.20261503 2.38616629 0 0 Z " fill="#F0CABE" transform="translate(90,80)"/>
<path d="M0 0 C2.5625 1.9375 2.5625 1.9375 5 5 C5.42432163 8.21438168 5.03607836 10.93608913 4 14 C1.4375 17.0625 1.4375 17.0625 -1 19 C-2.65 17.02 -4.3 15.04 -6 13 C-6 15.64 -6 18.28 -6 21 C-10.31395349 12.98837209 -10.31395349 12.98837209 -9.625 8.625 C-9.41875 8.08875 -9.2125 7.5525 -9 7 C-8.278125 7.7425 -7.55625 8.485 -6.8125 9.25 C-4.31407427 11.69290515 -1.76356798 13.8681047 1 16 C1.22384382 14.27277272 1.42839969 12.54303993 1.625 10.8125 C1.74101563 9.84957031 1.85703125 8.88664062 1.9765625 7.89453125 C2.00194942 4.75924677 1.34359283 2.80513465 0 0 Z " fill="#584857" transform="translate(122,56)"/>
<path d="M0 0 C0.66 0.33 1.32 0.66 2 1 C1.96519531 1.61488281 1.93039063 2.22976562 1.89453125 2.86328125 C1.86746094 3.67152344 1.84039063 4.47976562 1.8125 5.3125 C1.77769531 6.11300781 1.74289063 6.91351563 1.70703125 7.73828125 C2.06832306 10.52745402 2.95632767 11.16223924 5 13 C5.33 13.99 5.66 14.98 6 16 C7.65 16.33 9.3 16.66 11 17 C11 17.33 11 17.66 11 18 C5.7046288 18.50432107 3.13295494 17.28757779 -1 14 C-3.19398856 10.70901716 -3.21503664 10.15167419 -2.75 6.4375 C-2.66234375 5.65246094 -2.5746875 4.86742188 -2.484375 4.05859375 C-2 2 -2 2 0 0 Z " fill="#403945" transform="translate(11,67)"/>
<path d="M0 0 C0.33 0.66 0.66 1.32 1 2 C0.0625 4.125 0.0625 4.125 -1 6 C2.49705129 4.71567661 2.49705129 4.71567661 6 3 C6.33 2.01 6.66 1.02 7 0 C7.33 1.65 7.66 3.3 8 5 C8.66 5 9.32 5 10 5 C11.32 7.64 12.64 10.28 14 13 C12.35 13 10.7 13 9 13 C9 12.34 9 11.68 9 11 C8.01 10.67 7.02 10.34 6 10 C6.99 9.01 7.98 8.02 9 7 C8.31292969 7.0721875 7.62585937 7.144375 6.91796875 7.21875 C5.56638672 7.35796875 5.56638672 7.35796875 4.1875 7.5 C3.29417969 7.5928125 2.40085937 7.685625 1.48046875 7.78125 C-1 8 -1 8 -4 8 C-3.6875 5.125 -3.6875 5.125 -3 2 C-2.01 1.34 -1.02 0.68 0 0 Z " fill="#AD999B" transform="translate(52,70)"/>
<path d="M0 0 C3.53846878 7.07693756 0.94600314 17.74236289 -1.1484375 24.98828125 C-2 27 -2 27 -4 28 C-3.75552124 26.91972534 -3.75552124 26.91972534 -3.50610352 25.81762695 C-3.01903597 23.10597883 -2.88547358 20.66780647 -2.90234375 17.91796875 C-2.90556641 16.98662109 -2.90878906 16.05527344 -2.91210938 15.09570312 C-2.92048828 14.13599609 -2.92886719 13.17628906 -2.9375 12.1875 C-2.94201172 11.20845703 -2.94652344 10.22941406 -2.95117188 9.22070312 C-2.96291316 6.81373889 -2.97933581 4.40690143 -3 2 C-3.66 1.67 -4.32 1.34 -5 1 C-3 0 -3 0 0 0 Z " fill="#AAAAB1" transform="translate(115,80)"/>
<path d="M0 0 C0.33 1.98 0.66 3.96 1 6 C-3.32564205 7.58255197 -7.428721 8.45144652 -12 9 C-8.80875357 2.37202664 -8.80875357 2.37202664 -4.875 0.5625 C-2 0 -2 0 0 0 Z " fill="#A9A6B5" transform="translate(92,106)"/>
<path d="M0 0 C2.92332269 4.38498404 2.1356502 7.7774672 2 13 C2.66 8.71 3.32 4.42 4 0 C6.37327719 2.37327719 6.2957818 2.94974106 6.3125 6.1875 C6.23070957 10.78263484 5.07680283 13.9329278 3 18 C2.01 17.67 1.02 17.34 0 17 C0 11.39 0 5.78 0 0 Z " fill="#A7A9B5" transform="translate(71,68)"/>
<path d="M0 0 C4.55555556 0.55555556 4.55555556 0.55555556 6 2 C6.125 5 6.125 5 6 8 C5.67 8.33 5.34 8.66 5 9 C2.66055264 8.71269945 0.3260857 8.38063221 -2 8 C-2.125 5.125 -2.125 5.125 -2 2 C-1.34 1.34 -0.68 0.68 0 0 Z " fill="#2D4B86" transform="translate(86,82)"/>
<path d="M0 0 C0.33 0 0.66 0 1 0 C1.04898438 1.24136719 1.09796875 2.48273438 1.1484375 3.76171875 C1.22349799 5.40366694 1.29904439 7.04559297 1.375 8.6875 C1.4059375 9.50412109 1.436875 10.32074219 1.46875 11.16210938 C1.67955924 15.50126633 2.01738759 19.04283457 4 23 C2.35 23.99 0.7 24.98 -1 26 C-1.33 25.34 -1.66 24.68 -2 24 C-1.01 23.34 -0.02 22.68 1 22 C0.01 18.04 -0.98 14.08 -2 10 C-2.99 10.66 -3.98 11.32 -5 12 C-3.86279638 7.53866273 -2.64540851 3.79558613 0 0 Z " fill="#A0A1AC" transform="translate(105,88)"/>
<path d="M0 0 C1.98 0 3.96 0 6 0 C5.67 0.99 5.34 1.98 5 3 C5.66 3 6.32 3 7 3 C7 2.01 7 1.02 7 0 C8.32 0 9.64 0 11 0 C11 1.32 11 2.64 11 4 C10.2575 4.28875 9.515 4.5775 8.75 4.875 C6.43260203 5.82302644 4.22082885 6.84845911 2 8 C0 6 0 6 -0.125 2.875 C-0.08375 1.92625 -0.0425 0.9775 0 0 Z " fill="#F3B435" transform="translate(67,119)"/>
<path d="M0 0 C0.33 0 0.66 0 1 0 C1.33 3.3 1.66 6.6 2 10 C1.01 10 0.02 10 -1 10 C-1.33 10.99 -1.66 11.98 -2 13 C-2.99 13 -3.98 13 -5 13 C-5.61875 11.6696875 -5.61875 11.6696875 -6.25 10.3125 C-7.90127288 7.18687634 -9.71331259 4.68094386 -12 2 C-8.56404834 3.52708963 -5.88087546 5.59927045 -3 8 C-2.01 5.36 -1.02 2.72 0 0 Z " fill="#B09F9E" transform="translate(78,81)"/>
<path d="M0 0 C-2.33333333 2.33333333 -4.66666667 4.66666667 -7 7 C-8.9375 6.875 -8.9375 6.875 -11 6 C-12.75 3.9375 -12.75 3.9375 -14 2 C-12.37280374 0.37280374 -10.3422442 0.33130243 -8.125 -0.125 C-7.24070312 -0.31320313 -6.35640625 -0.50140625 -5.4453125 -0.6953125 C-3 -1 -3 -1 0 0 Z " fill="#F9CABA" transform="translate(84,110)"/>
<path d="M0 0 C0.66 0.66 1.32 1.32 2 2 C4.32275177 2.40047444 6.65739357 2.7397104 9 3 C9 3.99 9 4.98 9 6 C7.68 6.33 6.36 6.66 5 7 C4.8453125 7.9590625 4.8453125 7.9590625 4.6875 8.9375 C4.460625 9.618125 4.23375 10.29875 4 11 C3.01 11.33 2.02 11.66 1 12 C1.66 10.35 2.32 8.7 3 7 C2.01 6.34 1.02 5.68 0 5 C-0.33 5.99 -0.66 6.98 -1 8 C-1 6.68 -1 5.36 -1 4 C-1.99 3.67 -2.98 3.34 -4 3 C-2.68 3 -1.36 3 0 3 C0 2.01 0 1.02 0 0 Z " fill="#8C7764" transform="translate(87,112)"/>
<path d="M0 0 C2.1875 -0.375 2.1875 -0.375 5 0 C7.03762361 1.83386125 8.38808422 3.74331791 10 6 C10 6.33 10 6.66 10 7 C7.03 7 4.06 7 1 7 C0.67 4.69 0.34 2.38 0 0 Z " fill="#FBEAE4" transform="translate(83,71)"/>
<path d="M0 0 C2.17854707 3.2678206 3.49760034 6.38058265 5 10 C5.33 10 5.66 10 6 10 C6 11.65 6 13.3 6 15 C5.01 15.33 4.02 15.66 3 16 C2.35242375 14.56328432 1.70700547 13.12559584 1.0625 11.6875 C0.70285156 10.88699219 0.34320313 10.08648437 -0.02734375 9.26171875 C-1 7 -1 7 -2 4 C-1.34 4 -0.68 4 0 4 C0 2.68 0 1.36 0 0 Z " fill="#87647D" transform="translate(111,64)"/>
<path d="M0 0 C0.66 0.33 1.32 0.66 2 1 C1.67 1.680625 1.34 2.36125 1 3.0625 C-0.17307315 6.50840238 -0.14180493 9.38397422 0 13 C-0.99 13.33 -1.98 13.66 -3 14 C-3 10.7 -3 7.4 -3 4 C-4.32 3.67 -5.64 3.34 -7 3 C-4.69631264 1.93347808 -2.35981813 0.93578995 0 0 Z " fill="#433B49" transform="translate(39,37)"/>
<path d="M0 0 C0.33 0 0.66 0 1 0 C1.1875 2.875 1.1875 2.875 1 6 C0.01 6.66 -0.98 7.32 -2 8 C-0.68 9.32 0.64 10.64 2 12 C1.01 12.495 1.01 12.495 0 13 C-3.06006595 10.95995603 -3.77157178 10.30730675 -5 7 C-5.125 4.25 -5.125 4.25 -5 2 C-3.68 2 -2.36 2 -1 2 C-0.67 1.34 -0.34 0.68 0 0 Z " fill="#EDC3B6" transform="translate(58,97)"/>
<path d="M0 0 C0.33 3.3 0.66 6.6 1 10 C-0.65 10 -2.3 10 -4 10 C-4 7.36 -4 4.72 -4 2 C-4.66 1.67 -5.32 1.34 -6 1 C-3.92446352 0.4465236 -2.15634036 0 0 0 Z " fill="#A8AABC" transform="translate(31,82)"/>
<path d="M0 0 C1.32 0.66 2.64 1.32 4 2 C3.125 4.3125 3.125 4.3125 1 7 C-2.25503832 8.34185155 -5.57339945 9.20924603 -9 10 C-9 9.01 -9 8.02 -9 7 C-6.69 7 -4.38 7 -2 7 C-2.04125 6.21625 -2.0825 5.4325 -2.125 4.625 C-2 2 -2 2 0 0 Z " fill="#E3AB3E" transform="translate(87,117)"/>
<path d="M0 0 C0 0.66 0 1.32 0 2 C-1.65 2.33 -3.3 2.66 -5 3 C-5.66 4.98 -6.32 6.96 -7 9 C-7.33 9 -7.66 9 -8 9 C-8 7.02 -8 5.04 -8 3 C-9.65 3.33 -11.3 3.66 -13 4 C-13 3.34 -13 2.68 -13 2 C-8.50343896 -0.24828052 -4.92127034 -0.16682272 0 0 Z " fill="#27282D" transform="translate(63,84)"/>
<path d="M0 0 C1.05496286 3.65720457 2.07671407 7.30685628 3 11 C0.03 9.02 -2.94 7.04 -6 5 C-3.5 0 -3.5 0 0 0 Z " fill="#AA90A5" transform="translate(64,113)"/>
<path d="M0 0 C0 2.31 0 4.62 0 7 C-0.66 7 -1.32 7 -2 7 C-2.66 8.65 -3.32 10.3 -4 12 C-4.66 12 -5.32 12 -6 12 C-6.3125 8.8125 -6.3125 8.8125 -6 5 C-1.85106383 0 -1.85106383 0 0 0 Z " fill="#D5D6E1" transform="translate(100,102)"/>
<path d="M0 0 C2.18975773 3.28463659 2.99806563 6.20696275 4 10 C2.625 11.5 2.625 11.5 1 13 C0.34 13 -0.32 13 -1 13 C-1.02708567 11.39592672 -1.04643483 9.7917215 -1.0625 8.1875 C-1.07410156 7.29417969 -1.08570312 6.40085937 -1.09765625 5.48046875 C-1 3 -1 3 0 0 Z " fill="#7F85A2" transform="translate(98,106)"/>
<path d="M0 0 C0.66 0 1.32 0 2 0 C2.66 1.98 3.32 3.96 4 6 C1.36 6.66 -1.28 7.32 -4 8 C-2.25 2.25 -2.25 2.25 0 0 Z " fill="#F7C2B2" transform="translate(55,68)"/>
<path d="M0 0 C1.32 0.33 2.64 0.66 4 1 C3.67 2.98 3.34 4.96 3 7 C1.02 7 -0.96 7 -3 7 C-3 6.01 -3 5.02 -3 4 C-2.34 3.67 -1.68 3.34 -1 3 C-0.67 2.01 -0.34 1.02 0 0 Z " fill="#FAB832" transform="translate(82,117)"/>
<path d="M0 0 C0.99 0 1.98 0 3 0 C3.0825 0.61875 3.165 1.2375 3.25 1.875 C3.81258459 4.18437567 3.81258459 4.18437567 6.0625 5.25 C6.701875 5.4975 7.34125 5.745 8 6 C7.67 6.66 7.34 7.32 7 8 C5.35 8 3.7 8 2 8 C1.34 5.36 0.68 2.72 0 0 Z " fill="#B3B0B9" transform="translate(79,62)"/>
<path d="M0 0 C1.67542976 0.28604898 3.34385343 0.61781233 5 1 C4.67 2.65 4.34 4.3 4 6 C2.35 6 0.7 6 -1 6 C-1.042721 4.33388095 -1.04063832 2.66617115 -1 1 C-0.67 0.67 -0.34 0.34 0 0 Z " fill="#A98725" transform="translate(18,56)"/>
<path d="M0 0 C0.33 0 0.66 0 1 0 C1.33 2.97 1.66 5.94 2 9 C1.34 9 0.68 9 0 9 C0.33 9.99 0.66 10.98 1 12 C0.01 11.67 -0.98 11.34 -2 11 C-2.625 9.1875 -2.625 9.1875 -3 7 C-3.185625 6.2575 -3.37125 5.515 -3.5625 4.75 C-3.706875 4.1725 -3.85125 3.595 -4 3 C-3.01 3.33 -2.02 3.66 -1 4 C-0.67 2.68 -0.34 1.36 0 0 Z " fill="#AFA5AB" transform="translate(52,99)"/>
<path d="M0 0 C2.31 0.66 4.62 1.32 7 2 C7.33 3.98 7.66 5.96 8 8 C7.401875 7.690625 6.80375 7.38125 6.1875 7.0625 C3.91043228 5.89790296 3.91043228 5.89790296 1 5 C0.67 3.35 0.34 1.7 0 0 Z " fill="#DFE0E9" transform="translate(46,113)"/>
<path d="M0 0 C1.66611905 -0.042721 3.33382885 -0.04063832 5 0 C6 1 6 1 6.09765625 3.28515625 C6.08605469 4.20167969 6.07445313 5.11820312 6.0625 6.0625 C6.05347656 6.98160156 6.04445313 7.90070313 6.03515625 8.84765625 C6.02355469 9.55792969 6.01195313 10.26820312 6 11 C5.34 11 4.68 11 4 11 C3.896875 9.9275 3.79375 8.855 3.6875 7.75 C3.02599507 4.14179128 2.42516579 2.63604977 0 0 Z " fill="#EDDED9" transform="translate(90,80)"/>
<path d="M0 0 C-2.54631035 2.97069541 -5.42230149 4.4775751 -9 6 C-9.66 5.67 -10.32 5.34 -11 5 C-8.45499142 -0.63537615 -5.97208347 -0.11059414 0 0 Z " fill="#F5C2B1" transform="translate(59,77)"/>
<path d="M0 0 C0.99 0.66 1.98 1.32 3 2 C1.55746343 5.36591866 -0.33264727 7.51047079 -3 10 C-2.25 3.375 -2.25 3.375 0 0 Z " fill="#30293A" transform="translate(57,117)"/>
<path d="M0 0 C1.32 1.32 2.64 2.64 4 4 C3.01 4 2.02 4 1 4 C1 4.66 1 5.32 1 6 C-2.83225427 6.08912219 -6.26562152 5.87867729 -10 5 C-10.33 4.01 -10.66 3.02 -11 2 C-6.545 2.99 -6.545 2.99 -2 4 C-2 3.34 -2 2.68 -2 2 C-1.34 2 -0.68 2 0 2 C0 1.34 0 0.68 0 0 Z " fill="#757281" transform="translate(54,106)"/>
<path d="M0 0 C4.8 2.46153846 4.8 2.46153846 5.8125 5.1875 C5.874375 5.785625 5.93625 6.38375 6 7 C5.34 6.67 4.68 6.34 4 6 C4 8.64 4 11.28 4 14 C1.51787516 9.39033958 0 5.27072485 0 0 Z " fill="#604B5E" transform="translate(112,63)"/>
<path d="M0 0 C0.66 0 1.32 0 2 0 C1.01 2.97 0.02 5.94 -1 9 C-1.66 7.68 -2.32 6.36 -3 5 C-3.99 4.67 -4.98 4.34 -6 4 C-5.67 3.34 -5.34 2.68 -5 2 C-4.01 2.33 -3.02 2.66 -2 3 C-1.34 2.01 -0.68 1.02 0 0 Z " fill="#E5E5EB" transform="translate(76,82)"/>
<path d="M0 0 C0.66 0 1.32 0 2 0 C2.3690205 10.55808656 2.3690205 10.55808656 0 15 C-0.91740621 11.87645029 -1.13460306 9.06313562 -1.125 5.8125 C-1.12757812 4.93207031 -1.13015625 4.05164063 -1.1328125 3.14453125 C-1 1 -1 1 0 0 Z " fill="#E7E9EF" transform="translate(73,68)"/>
<path d="M0 0 C0.66 0 1.32 0 2 0 C2 0.66 2 1.32 2 2 C2.99 2.33 3.98 2.66 5 3 C4.34 3.66 3.68 4.32 3 5 C2.3574765 7.06874034 2.3574765 7.06874034 2 9 C1.34 9 0.68 9 0 9 C0 9.99 0 10.98 0 12 C-0.66 12 -1.32 12 -2 12 C-1.67 10.948125 -1.34 9.89625 -1 8.8125 C-0.16033218 5.61126643 0.19750904 3.2588992 0 0 Z " fill="#87889F" transform="translate(38,104)"/>
<path d="M0 0 C0.99 0 1.98 0 3 0 C3 1.65 3 3.3 3 5 C3.66 5.33 4.32 5.66 5 6 C3 9 3 9 0.875 9.6875 C0.25625 9.790625 -0.3625 9.89375 -1 10 C-0.649375 8.906875 -0.29875 7.81375 0.0625 6.6875 C1.33039454 3.09079627 1.33039454 3.09079627 0 0 Z " fill="#86808B" transform="translate(95,95)"/>
<path d="M0 0 C1.67542976 0.28604898 3.34385343 0.61781233 5 1 C5 1.99 5 2.98 5 4 C2.69 4.33 0.38 4.66 -2 5 C-1.125 1.125 -1.125 1.125 0 0 Z " fill="#213A6C" transform="translate(86,82)"/>
<path d="M0 0 C0.33 0 0.66 0 1 0 C0.67 5.28 0.34 10.56 0 16 C-0.99 15.67 -1.98 15.34 -3 15 C-2.01 10.05 -1.02 5.1 0 0 Z " fill="#9798A0" transform="translate(27,100)"/>
<path d="M0 0 C2.31 0 4.62 0 7 0 C7 1.32 7 2.64 7 4 C4.69 4 2.38 4 0 4 C0 2.68 0 1.36 0 0 Z " fill="#3E578D" transform="translate(56,92)"/>
<path d="M0 0 C0.33 0.66 0.66 1.32 1 2 C0.0625 4.125 0.0625 4.125 -1 6 C0.65 6 2.3 6 4 6 C1.35261084 7.4606285 0.10551666 8 -3 8 C-4 5 -4 5 -3.1875 2.875 C-2 1 -2 1 0 0 Z " fill="#ADA0A7" transform="translate(52,70)"/>
<path d="M0 0 C1.5 1.375 1.5 1.375 3 3 C3 3.66 3 4.32 3 5 C0.69 5.33 -1.62 5.66 -4 6 C-1.125 1.125 -1.125 1.125 0 0 Z " fill="#DAD8D8" transform="translate(84,109)"/>
<path d="M0 0 C1.98 0 3.96 0 6 0 C6 0.66 6 1.32 6 2 C5.01 2.33 4.02 2.66 3 3 C3.66 4.32 4.32 5.64 5 7 C3.02 5.35 1.04 3.7 -1 2 C-0.67 1.34 -0.34 0.68 0 0 Z " fill="#1E1D22" transform="translate(88,78)"/>
<path d="M0 0 C1.9375 0.8125 1.9375 0.8125 4 2 C4.33 2.99 4.66 3.98 5 5 C3.35 5 1.7 5 0 5 C0 4.34 0 3.68 0 3 C-0.99 2.67 -1.98 2.34 -3 2 C-2.01 1.34 -1.02 0.68 0 0 Z " fill="#C7B9B5" transform="translate(61,78)"/>
<path d="M0 0 C2.29633824 3.44450737 2.54016485 5.93812283 3 10 C2.67 9.34 2.34 8.68 2 8 C1.01 7.67 0.02 7.34 -1 7 C-1.33 6.01 -1.66 5.02 -2 4 C-1.34 4 -0.68 4 0 4 C0 2.68 0 1.36 0 0 Z " fill="#AB628E" transform="translate(111,64)"/>
<path d="M0 0 C1.32 0.66 2.64 1.32 4 2 C2.625 4.5 2.625 4.5 1 7 C0.34 7 -0.32 7 -1 7 C-0.67 4.69 -0.34 2.38 0 0 Z " fill="#BAA6AC" transform="translate(87,117)"/>
<path d="M0 0 C1.875 0.3125 1.875 0.3125 4 1 C4.66 1.99 5.32 2.98 6 4 C4.02 4.33 2.04 4.66 0 5 C0 3.35 0 1.7 0 0 Z " fill="#E3E1E3" transform="translate(65,112)"/>
<path d="M0 0 C3 2 3 2 3.6875 4.125 C3.8421875 5.053125 3.8421875 5.053125 4 6 C3.34 6 2.68 6 2 6 C2 6.99 2 7.98 2 9 C1.34 9 0.68 9 0 9 C0 6.03 0 3.06 0 0 Z " fill="#A6A9B0" transform="translate(34,98)"/>
<path d="M0 0 C0.99 0 1.98 0 3 0 C5.5654594 2.5654594 5.54046087 4.47686668 6 8 C1.125 3.375 1.125 3.375 0 0 Z " fill="#9C9AA4" transform="translate(91,74)"/>
<path d="M0 0 C0.66 0 1.32 0 2 0 C1.67 1.65 1.34 3.3 1 5 C-0.65 5 -2.3 5 -4 5 C-2.71937515 3.2925002 -1.38232443 1.62626404 0 0 Z " fill="#C89946" transform="translate(74,123)"/>
<path d="M0 0 C2.31 0 4.62 0 7 0 C7 0.66 7 1.32 7 2 C6.34 2 5.68 2 5 2 C4.67 2.66 4.34 3.32 4 4 C2.68 3.34 1.36 2.68 0 2 C0 1.34 0 0.68 0 0 Z " fill="#CBA8C7" transform="translate(38,121)"/>
<path d="M0 0 C3.16115776 1.36983503 3.9927092 1.9890638 6 5 C3.625 5.625 3.625 5.625 1 6 C0.34 5.34 -0.32 4.68 -1 4 C-0.01 3.67 0.98 3.34 2 3 C1.34 2.01 0.68 1.02 0 0 Z " fill="#B2A3A1" transform="translate(68,112)"/>
<path d="M0 0 C3.4375 0.8125 3.4375 0.8125 7 2 C7.33 2.99 7.66 3.98 8 5 C5.125 4.75 5.125 4.75 2 4 C0.625 1.9375 0.625 1.9375 0 0 Z " fill="#BFC3D7" transform="translate(45,110)"/>
<path d="M0 0 C0.33 1.32 0.66 2.64 1 4 C-0.65 4.33 -2.3 4.66 -4 5 C-4 4.01 -4 3.02 -4 2 C-2.68 1.34 -1.36 0.68 0 0 Z " fill="#E9EAF1" transform="translate(92,108)"/>
<path d="M0 0 C2.05078125 0.03255208 4.1015625 0.06510417 6.15234375 0.09765625 C6.15234375 0.75765625 6.15234375 1.41765625 6.15234375 2.09765625 C3.33984375 2.72265625 3.33984375 2.72265625 0.15234375 3.09765625 C-0.83765625 2.43765625 -1.82765625 1.77765625 -2.84765625 1.09765625 C-1.84765625 0.09765625 -1.84765625 0.09765625 0 0 Z " fill="#121219" transform="translate(56.84765625,83.90234375)"/>
<path d="M0 0 C0.66 0 1.32 0 2 0 C0.63016497 3.16115776 0.0109362 3.9927092 -3 6 C-3.99 6 -4.98 6 -6 6 C-5.67 5.01 -5.34 4.02 -5 3 C-3.67696283 2.6278958 -2.34262065 2.29369827 -1 2 C-0.67 1.34 -0.34 0.68 0 0 Z " fill="#2E2735" transform="translate(29,64)"/>
<path d="M0 0 C0.66 0 1.32 0 2 0 C2 2.31 2 4.62 2 7 C1.01 7 0.02 7 -1 7 C-0.67 4.69 -0.34 2.38 0 0 Z " fill="#DBD3BD" transform="translate(20,49)"/>
<path d="M0 0 C1.258125 0.226875 2.51625 0.45375 3.8125 0.6875 C0.17826791 3.01340854 -2.95838331 2.85015833 -7.1875 2.6875 C-5.15110924 -0.49436057 -3.4972064 -0.45804119 0 0 Z " fill="#6B576E" transform="translate(87.1875,36.3125)"/>
<path d="M0 0 C-3.31371 2.20914 -4.3446021 2.22481553 -8.1875 2.125 C-9.08855469 2.10695313 -9.98960938 2.08890625 -10.91796875 2.0703125 C-11.60503906 2.04710938 -12.29210937 2.02390625 -13 2 C-13 1.67 -13 1.34 -13 1 C-11.39796533 0.63631108 -9.79325797 0.28438048 -8.1875 -0.0625 C-7.29417969 -0.25972656 -6.40085937 -0.45695312 -5.48046875 -0.66015625 C-3 -1 -3 -1 0 0 Z " fill="#CEA294" transform="translate(84,110)"/>
<path d="M0 0 C0.99 0.33 1.98 0.66 3 1 C3 2.32 3 3.64 3 5 C1.68 4.67 0.36 4.34 -1 4 C-0.67 2.68 -0.34 1.36 0 0 Z " fill="#D7D7E4" transform="translate(41,108)"/>
<path d="M0 0 C0.99 0.33 1.98 0.66 3 1 C2.67 3.31 2.34 5.62 2 8 C1.01 7.67 0.02 7.34 -1 7 C-0.67 4.69 -0.34 2.38 0 0 Z " fill="#B1A2A1" transform="translate(81,80)"/>
</svg>
